<svg id="Layer_1" data-name="Layer 1" xmlns="http://www.w3.org/2000/svg" viewBox="0 0 730.50299 865.56693"><title>hands</title><path d="M633.79455,5.6637,606.02338,33.47933,578.84351,6.30057l-102.024,101.93285a157.45243,157.45243,0,0,0-38.19453,59.9571,156.66069,156.66069,0,0,0-39.426-63.32708L302.001,7.621,274.82331,34.79976,247.00768,6.93855,156.50074,97.39771l83.85813,83.81256-.09114.09114a140.28114,140.28114,0,0,1,41.33777,85.67983H162.60271c-86.86355,0-157.51965,70.6561-157.51965,157.42851a157.53942,157.53942,0,0,0,156.6527,157.47408h120.69V701.75246A157.37772,157.37772,0,0,0,439.85427,859.181c86.86355,0,157.51965-70.61053,157.51965-157.42851V281.77712a139.84008,139.84008,0,0,1,42.15581-100.47571l84.95182-85.04185ZM252.78732,170.51238l.09114-.09114L179.90161,97.39771l14.43132-14.47689,47.75761,47.71093,11.60819-11.70044L206.03448,71.266l14.6136-14.6136L268.359,104.31771l11.65487-11.65486L232.3474,44.95192l14.66028-14.65917,73.38587,73.43255L332.04842,92.026,286.47818,46.45462,302.001,30.93073l85.54312,85.63315.09114.04557a139.91892,139.91892,0,0,1,42.158,99.79216v.638c-.04668.9103,0,167.94523,0,167.94523a33.07925,33.07925,0,0,1-33.05287,33.05066H298.95109s-.04446-140.94765-.18228-143.26951A156.406,156.406,0,0,0,252.78732,170.51238Zm328.059,531.24008c0,77.71282-63.28039,140.90207-140.9921,140.90207A140.82484,140.82484,0,0,1,298.95109,701.75246V581.88383H429.79325V702.57161h16.52533V581.746a157.62338,157.62338,0,0,0,134.52779-87.18143Zm47.25746-532.37823a156.15854,156.15854,0,0,0-47.25746,112.40289v142.6782c0,77.71171-63.23371,140.90207-140.94764,140.90207H161.78244A140.82746,140.82746,0,0,1,21.60838,424.40975c0-77.66725,63.23594-140.90207,140.99433-140.90207H282.42576v134.5278H161.78244v16.52643H396.74038a49.60319,49.60319,0,0,0,49.5782-49.57709V216.58389a140.04609,140.04609,0,0,1,42.11135-96.56l90.41358-90.41358L594.32183,45.1342,548.75159,90.70555,560.40645,102.406l73.3881-73.3881,14.65806,14.6136L600.78836,91.29685,612.441,102.99729l47.66647-47.66536L674.76775,69.9911l-47.66647,47.61979,11.60819,11.70043,47.75761-47.71093,14.66028,14.65917Z"/></svg>